<?xml version="1.0" encoding="UTF-8" standalone="no"?>
<svg
   xmlns:dc="http://purl.org/dc/elements/1.1/"
   xmlns:cc="http://creativecommons.org/ns#"
   xmlns:rdf="http://www.w3.org/1999/02/22-rdf-syntax-ns#"
   xmlns:svg="http://www.w3.org/2000/svg"
   xmlns="http://www.w3.org/2000/svg"
   xmlns:sodipodi="http://sodipodi.sourceforge.net/DTD/sodipodi-0.dtd"
   xmlns:inkscape="http://www.inkscape.org/namespaces/inkscape"
   viewBox="0 0 142.15 33.3"
   version="1.1"
   id="svg19"
   sodipodi:docname="logo-titled-white.svg"
   inkscape:version="0.92.3 (2405546, 2018-03-11)">
  <metadata
     id="metadata23">
    <rdf:RDF>
      <cc:Work
         rdf:about="">
        <dc:format>image/svg+xml</dc:format>
        <dc:type
           rdf:resource="http://purl.org/dc/dcmitype/StillImage" />
        <dc:title>Asset 2</dc:title>
      </cc:Work>
    </rdf:RDF>
  </metadata>
  <sodipodi:namedview
     pagecolor="#ffffff"
     bordercolor="#666666"
     borderopacity="1"
     objecttolerance="10"
     gridtolerance="10"
     guidetolerance="10"
     inkscape:pageopacity="0"
     inkscape:pageshadow="2"
     inkscape:window-width="1520"
     inkscape:window-height="805"
     id="namedview21"
     showgrid="false"
     inkscape:zoom="2.6732326"
     inkscape:cx="71.074997"
     inkscape:cy="16.65"
     inkscape:window-x="0"
     inkscape:window-y="40"
     inkscape:window-maximized="0"
     inkscape:current-layer="svg19" />
  <defs
     id="defs9">
    <style
       id="style2">.cls-1{fill:#fff;}.cls-1,.cls-2{fill-rule:evenodd;}.cls-2{opacity:0.92;fill:url(#linear-gradient);}</style>
    <linearGradient
       id="linear-gradient"
       x1="-11.9"
       y1="16.65"
       x2="38.68"
       y2="16.65"
       gradientUnits="userSpaceOnUse">
      <stop
         offset="0"
         stop-color="#ff71ff"
         id="stop4" />
      <stop
         offset="1"
         stop-color="#55abfd"
         id="stop6" />
    </linearGradient>
  </defs>
  <title
     id="title11">Asset 2</title>
  <g
     id="Layer_2"
     data-name="Layer 2">
    <g
       id="Layer_1-2"
       data-name="Layer 1">
      <path
         class="cls-1"
         d="M49.07,25.42h2.59l7-16.92h-3.2l-5,12.91L45.35,8.5H42.08l7,16.92Zm59.23-.12h3V11.19h4.3c2.18,0,3.48,1,3.48,2.78v0c0,1.7-1.34,2.81-3.46,2.81H113.5v.55L116,21h0l3.06,4.33h3.48L118,18.94a5,5,0,0,0,4-5.09v0a5.06,5.06,0,0,0-1.39-3.62,6.76,6.76,0,0,0-4.85-1.68H108.3V25.3Zm18.66,0h6.26c5.28,0,8.93-3.67,8.93-8.4v0c0-4.73-3.65-8.35-8.93-8.35H127V25.3Zm3-2.69V11.19h3.31a5.51,5.51,0,0,1,5.83,5.71V17a5.47,5.47,0,0,1-5.83,5.66ZM86.6,25.3h3c3.11-7.29,2.43-5.78,5.69-13.39,2.74,6.34,3.23,7.53,5.69,13.39h3.12L96.73,8.38H94L86.6,25.3Zm-9,.24c3.53,0,6-1.87,6-5v-.05c0-2.78-1.85-4-5.4-4.92-3.22-.76-4-1.34-4-2.64v0c0-1.11,1-2,2.74-2a7.63,7.63,0,0,1,4.56,1.73l1.58-2.23A9.27,9.27,0,0,0,77,8.26c-3.34,0-5.74,2-5.74,4.87v0c0,3.09,2,4.15,5.59,5,3.12.72,3.8,1.37,3.8,2.57v0c0,1.27-1.16,2.11-3,2.11a7.76,7.76,0,0,1-5.31-2.18l-1.77,2.11a10.34,10.34,0,0,0,7,2.69ZM63,25.3h3V8.5H63Z"
         id="path13" />
      <path
         class="cls-2"
         d="M35.93.89,22,25l-.27.46L21.49,25,13.16,10.54h-4L21.76,32.42,38,4.38l-2-3.49ZM6.58,8.76H6l.27.46L20.21,33.3h-4L0,5.27H25.25l-2,3.49ZM2,0H34.39L21.76,21.87l-2-3.49L28.08,4l.27-.47H0Z"
         id="path15"
         style="fill:#ffffff" />
    </g>
  </g>
</svg>
